<svg xmlns="http://www.w3.org/2000/svg" width="87.514" height="87.497" viewBox="0 0 87.514 87.497"><defs><style>.a{opacity:0.4;}.b{fill:#fff;}</style></defs><g class="a" transform="translate(0 -0.051)"><g transform="translate(56.748 51.653)"><path class="b" d="M339.692,301.95H332v5.128h7.692a2.564,2.564,0,1,0,0-5.128Z" transform="translate(-332 -301.95)"/></g><g transform="translate(31.109 31.142)"><path class="b" d="M210.2,181.95a28.2,28.2,0,1,0,28.2,28.2A28.235,28.235,0,0,0,210.2,181.95Zm12.819,33.331a7.7,7.7,0,0,1-7.692,7.692h-2.564v2.564a2.564,2.564,0,0,1-5.128,0v-2.564h-7.692a2.564,2.564,0,0,1,0-5.128h2.564V202.461h-2.564a2.564,2.564,0,0,1,0-5.128h7.692v-2.564a2.564,2.564,0,1,1,5.128,0v2.564h2.564a7.658,7.658,0,0,1,5.691,12.819A7.633,7.633,0,0,1,223.022,215.281Z" transform="translate(-182 -181.95)"/></g><g transform="translate(56.748 61.909)"><path class="b" d="M339.692,361.95H332v5.128h7.692a2.564,2.564,0,0,0,0-5.128Z" transform="translate(-332 -361.95)"/></g><g transform="translate(0 61.071)"><path class="b" d="M26.681,362.742c-1.128.051-2.308.1-3.435.1-8.307,0-17.708-1.641-23.246-5.795,0,8.683,14.537,10.922,23.246,10.922,1.744,0,3.384-.154,5.025-.308A32.44,32.44,0,0,1,26.681,362.742Z" transform="translate(0 -357.05)"/></g><g transform="translate(0 50.816)"><path class="b" d="M25.913,302.793c-.872.051-1.8.051-2.667.051-8.307,0-17.708-1.641-23.246-5.794,0,8.865,14.588,10.922,23.246,10.922a23.136,23.136,0,0,0,2.667-.1c-.051-.82-.1-1.641-.1-2.461C25.81,304.536,25.861,303.665,25.913,302.793Z" transform="translate(0 -297.05)"/></g><g transform="translate(0 40.56)"><path class="b" d="M23.246,242.843c-8.307,0-17.708-1.641-23.246-5.794,0,8.865,14.588,10.922,23.246,10.922,1.179,0,2.308-.051,3.487-.1a30.351,30.351,0,0,1,1.744-5.282A44.68,44.68,0,0,1,23.246,242.843Z" transform="translate(0 -237.049)"/></g><g transform="translate(0 30.304)"><path class="b" d="M23.246,182.843c-8.307,0-17.708-1.641-23.246-5.794,0,8.865,14.588,10.922,23.246,10.922a54.919,54.919,0,0,0,8.256-.615h.051a21.345,21.345,0,0,1,2.615-3.487c.82-.923,1.692-1.795,2.615-2.667A54.376,54.376,0,0,1,23.246,182.843Z" transform="translate(0 -177.049)"/></g><g transform="translate(0 20.025)"><path class="b" d="M23.246,122.727c-8.32,0-17.685-1.661-23.246-5.818,0,8.877,14.59,10.946,23.246,10.946,11.127,0,23.075-3.231,23.075-10.256v-.691C40.76,121.067,31.566,122.727,23.246,122.727Z" transform="translate(0 -116.909)"/></g><g transform="translate(0 0.051)"><path class="b" d="M0,10.46c0,6.733,11.779,10.256,23.246,10.256S46.321,17.193,46.321,10.46C46.321-3.419,0-3.419,0,10.46Z" transform="translate(0 -0.051)"/></g></g></svg>