<svg xmlns="http://www.w3.org/2000/svg" width="68.755" height="70.497" viewBox="0 0 68.755 70.497"><defs><style>.a{opacity:0.4;}.b{fill:#fff;}</style></defs><g class="a"><path class="b" d="M107.488,88.137c-10.671,0-19.351,9.071-19.351,20.222s8.681,20.222,19.351,20.222,19.351-9.071,19.351-20.222S118.159,88.137,107.488,88.137Zm6.182,26.7a1.809,1.809,0,0,1,0,3.614h-8.9a2.767,2.767,0,0,1-2.266-1.186,3.039,3.039,0,0,1-.451-2.606l1.313-4.679-3.073.7a1.654,1.654,0,0,1-.368.042,1.749,1.749,0,0,1-1.688-1.424,1.809,1.809,0,0,1,1.323-2.15l4.915-1.115,2.542-9.057a1.72,1.72,0,0,1,2.146-1.226,1.821,1.821,0,0,1,1.173,2.243l-2.011,7.166,4.983-1.13a1.731,1.731,0,0,1,2.057,1.382,1.808,1.808,0,0,1-1.323,2.149l-6.825,1.549-1.608,5.731h8.066Zm0,0" transform="translate(-73.111 -73.11)"/><path class="b" d="M58.686,10.324a33.781,33.781,0,0,0-48.618,0,35.883,35.883,0,0,0,0,49.849,33.781,33.781,0,0,0,48.618,0,35.883,35.883,0,0,0,0-49.849ZM34.377,62.492c-14.651,0-26.571-12.222-26.571-27.244S19.726,8,34.377,8,60.948,20.226,60.948,35.249,49.029,62.492,34.377,62.492Zm0,0" transform="translate(0.001 0)"/></g></svg>