<svg xmlns="http://www.w3.org/2000/svg" width="76.41" height="70.497" viewBox="0 0 76.41 70.497"><defs><style>.a{opacity:0.4;}.b{fill:#fbf8fd;fill-rule:evenodd;}</style></defs><g class="a"><path class="b" d="M8.642,13.645l21.377.455.455,9.551C23.2,24.56,2.729,25.015,0,32.292c4.093,7.277,20.012,7.277,30.018,8.187L30.473,70.5H45.482l.455-30.018c10.006-.91,26.38-.91,30.473-8.187-1.364-4.548-7.277-5.913-12.28-6.822-5.458-1.364-11.37-1.364-17.738-1.819V14.1l21.377-.455V0H9.551L9.1,13.645ZM3.184,31.383c6.367,9.551,62.765,9.551,69.587,0-3.639-5.913-18.193-6.822-26.834-6.367l-.455,10.461H30.473l-.455-10.461C21.831,24.56,6.822,25.47,3.184,31.383Z"/></g></svg>